<svg xmlns="http://www.w3.org/2000/svg" width="32" height="32" viewBox="0 0 62 62">
  <g id="WhatsApp" transform="translate(1 1)">
    <g id="Group_124" data-name="Group 124">
      <path id="Path_44" data-name="Path 44" d="M30,0A30,30,0,1,1,0,30,30,30,0,0,1,30,0Z" fill="none" stroke="#ffffff" stroke-width="2"/>
      <path id="Path_42" data-name="Path 42" d="M1382.4,2751.607l2.986-11.126a20.623,20.623,0,1,1,8.212,8.13Zm11.755-7.166.705.42a16.713,16.713,0,1,0-5.727-5.667l.433.709-1.667,6.212Z" transform="translate(-1373.17 -2701.59)" fill="#ffffff"/>
      <path id="Path_43" data-name="Path 43" d="M1493.156,2816.985a3.234,3.234,0,0,0-2.756-.621c-.716.293-1.173,1.414-1.637,1.986a.686.686,0,0,1-.888.193,12.482,12.482,0,0,1-6.229-5.336.764.764,0,0,1,.1-1.043,4.213,4.213,0,0,0,1.132-1.838,4.015,4.015,0,0,0-.506-2.174,5.153,5.153,0,0,0-1.605-2.42,2.2,2.2,0,0,0-2.389.355,4.85,4.85,0,0,0-1.681,3.843,5.428,5.428,0,0,0,.151,1.219,10.093,10.093,0,0,0,1.17,2.7,21.319,21.319,0,0,0,1.221,1.857,18.853,18.853,0,0,0,5.3,4.917,16.046,16.046,0,0,0,3.3,1.571,7.343,7.343,0,0,0,3.845.607,4.654,4.654,0,0,0,3.486-2.593,2.255,2.255,0,0,0,.162-1.324C1495.127,2817.968,1493.893,2817.425,1493.156,2816.985Z" transform="translate(-1456.029 -2784.976)" fill="#ffffff" fill-rule="evenodd"/>
    </g>
  </g>
</svg>
